Coordinates
nRows=8
nColumns=38

# SIMM Motion File Header:
name Coordinates
datacolumns 38
datarows 8
otherdata 1
range 1.77300000000000010000 1.78000000000000000000

Units are S.I. units (second, meters, Newtons, ...)
Angles are in degrees.

endheader
time	pelvis_tilt	pelvis_list	pelvis_rotation	pelvis_tx	pelvis_ty	pelvis_tz	hip_flexion_r	hip_adduction_r	hip_rotation_r	knee_angle_r	ankle_angle_r	subtalar_angle_r	mtp_angle_r	hip_flexion_l	hip_adduction_l	hip_rotation_l	knee_angle_l	ankle_angle_l	subtalar_angle_l	mtp_angle_l	lumbar_extension	lumbar_bending	lumbar_rotation	arm_flex_r	arm_add_r	arm_rot_r	elbow_flex_r	pro_sup_r	wrist_flex_r	wrist_dev_r	arm_flex_l	arm_add_l	arm_rot_l	elbow_flex_l	pro_sup_l	wrist_flex_l	wrist_dev_l
      1.77300000000000010000	    -14.18309660873831400000	      3.84049463275813350000	      1.74723988289196310000	      0.99115337128817116000	      0.97822630830248103000	     -0.34525201078996248000	     45.35876160468303200000	     -4.55396326197282430000	      3.77279790735273930000	    -87.32982595344248000000	      6.50186332803550650000	     -0.00000000000011791132	     -0.00000000000010055275	     14.49327327766822300000	     10.89468447428647500000	     -0.67367770878584377000	    -28.32654516419820800000	     16.02560298348346600000	     -0.00000000000002102603	     -0.00000000000004944718	      1.73780453987913370000	     -4.59922443055146600000	     -6.80679292385005660000	    -33.82784834795660300000	    -21.41206988218903700000	     -6.28545262544126080000	     92.47916005732062700000	    107.77365160290725000000	     -0.00000000000000266559	     -0.00000000000003465245	    -24.29688371822300400000	    -10.53518372304746200000	    -12.51106729418305500000	    113.97967582875164000000	    100.91902170748185000000	      0.00000000000002228217	      0.00000000000005623455
      1.77400000000000000000	    -14.18463310918002000000	      3.78326427806344560000	      1.69616020396561850000	      0.99128628567661459000	      0.97894246262597540000	     -0.34520563083329953000	     45.45650700767650700000	     -4.47869507478452710000	      3.74268717960055050000	    -86.98248192171387000000	      6.54900402614306200000	     -0.00000000000011815585	     -0.00000000000010070030	     14.15506330651109000000	     10.81368003980884900000	     -0.64515953101663459000	    -28.01191506572103100000	     15.69923234092566800000	     -0.00000000000002065719	     -0.00000000000004983002	      1.77434038488297310000	     -4.51111040762588190000	     -6.86852260313807950000	    -33.99276208849414600000	    -21.45339978936058900000	     -6.34792684547696060000	     92.67042161475879400000	    107.75541948296568000000	     -0.00000000000000267260	     -0.00000000000003479828	    -24.32859363580798000000	    -10.51431865602564700000	    -12.49707306270866700000	    114.22580345345705000000	    100.82792061116186000000	      0.00000000000002232834	      0.00000000000005655479
      1.77500000000000010000	    -14.18623195568661700000	      3.72509838569531170000	      1.64466311430525440000	      0.99142130909887982000	      0.97966259074557127000	     -0.34515723470958160000	     45.55121824238585800000	     -4.40291326858257110000	      3.71018233594926720000	    -86.62988430939286400000	      6.59537210724065040000	     -0.00000000000011839871	     -0.00000000000010084778	     13.81843175868018400000	     10.73091786053131900000	     -0.61958323052948239000	    -27.69809391375810700000	     15.36492875896943900000	     -0.00000000000002023828	     -0.00000000000005024120	      1.81102071397071350000	     -4.42192498610237020000	     -6.92807603437376150000	    -34.15852925593335200000	    -21.49268626688816400000	     -6.41328000643766580000	     92.86098281529714900000	    107.74097741744258000000	     -0.00000000000000267941	     -0.00000000000003494478	    -24.35984329014828400000	    -10.49491979800090700000	    -12.48086134902839800000	    114.47081748786454000000	    100.74025650144321000000	      0.00000000000002237434	      0.00000000000005687969
      1.77600000000000000000	    -14.18788807996721100000	      3.66599928170177370000	      1.59275740972159690000	      0.99155830531614042000	      0.98038647328821926000	     -0.34510678893958824000	     45.64289780365793800000	     -4.32660914090162050000	      3.67529507665529340000	    -86.27205705595825700000	      6.64096854450765410000	     -0.00000000000011864121	     -0.00000000000010099633	     13.48345705187617800000	     10.64640635250827700000	     -0.59699966401884463000	    -27.38521971421699800000	     15.02281961113580900000	     -0.00000000000001980569	     -0.00000000000005065381	      1.84780635891451770000	     -4.33168004237404070000	     -6.98545925557928180000	    -34.32512743787953000000	    -21.52991726806001800000	     -6.48145416224198190000	     93.05079762226687000000	    107.72995618416316000000	     -0.00000000000000268639	     -0.00000000000003509001	    -24.39064648542025500000	    -10.47698325500723000000	    -12.46250948505759700000	    114.71472572897254000000	    100.65621729219028000000	      0.00000000000002242003	      0.00000000000005719056
      1.77700000000000010000	    -14.18959767242228100000	      3.60596859802661650000	      1.54045382965467770000	      0.99169714260261543000	      0.98111388884863537000	     -0.34505426575266740000	     45.73154885744880700000	     -4.24977331366489610000	      3.63803719996147690000	    -85.90902320177096400000	      6.68579441986678450000	     -0.00000000000011888059	     -0.00000000000010114422	     13.15021534185512700000	     10.56015615913972500000	     -0.57744823769020637000	    -27.07342698234741400000	     14.67304261688036600000	     -0.00000000000001937350	     -0.00000000000005103332	      1.88466074406396130000	     -4.24038642701524540000	     -7.04068226003842850000	    -34.49253415237211600000	    -21.56508536642378700000	     -6.55238627035310910000	     93.23982425338425600000	    107.72198838236665000000	     -0.00000000000000269370	     -0.00000000000003523476	    -24.42101990081572200000	    -10.46050293819549500000	    -12.44209505366337300000	    114.95753910400941000000	    100.57597690523981000000	      0.00000000000002246567	      0.00000000000005750099
      1.77800000000000000000	    -14.19135835383780500000	      3.54500757611722280000	      1.48776506370705050000	      0.99183769380288211000	      0.98184461385274024000	     -0.34499964327102600000	     45.81717543426912400000	     -4.17239609413356940000	      3.59842076779699660000	    -85.54080501572593700000	      6.72985100062457060000	     -0.00000000000011912306	     -0.00000000000010129161	     12.81878069688759000000	     10.47218041801610500000	     -0.56095685926871863000	    -26.76284672094142200000	     14.31574558740984100000	     -0.00000000000001895785	     -0.00000000000005138143	      1.92155013185709130000	     -4.14805429672388470000	     -7.09375894805253090000	    -34.66072676158064800000	    -21.59818763490204700000	     -6.62600842979424610000	     93.42802480371230400000	    107.71671012013562000000	     -0.00000000000000270129	     -0.00000000000003537927	    -24.45098282157482900000	    -10.44547067819668800000	    -12.41969556940883900000	    115.19927110061016000000	    100.49969506554682000000	      0.00000000000002251093	      0.00000000000005780635
      1.77900000000000010000	    -14.19316932148924300000	      3.48311737043498090000	      1.43470575692200300000	      0.99197983639255172000	      0.98257842245555771000	     -0.34494290569665070000	     45.89978259219898900000	     -4.09446783455433660000	      3.55645826916649940000	    -85.16742412025860200000	      6.77313982038840920000	     -0.00000000000011936409	     -0.00000000000010143855	     12.48922524103024000000	     10.38249502549556200000	     -0.54754188806056947000	    -26.45360639170770900000	     13.95108616423389200000	     -0.00000000000001852971	     -0.00000000000005174938	      1.95844383866609100000	     -4.05469344362476480000	     -7.14470707894158610000	    -34.82968237925478400000	    -21.62922552562544000000	     -6.70224811849945910000	     93.61536486820378400000	    107.71376270129406000000	     -0.00000000000000270913	     -0.00000000000003552416	    -24.48055686473551900000	    -10.43187633905101400000	    -12.39538815880352400000	    115.43993719704655000000	    100.42751709592260000000	      0.00000000000002255612	      0.00000000000005810917
      1.78000000000000000000	    -14.19503146765818300000	      3.42029935167129340000	      1.38129251363037660000	      0.99212345254505629000	      0.98331508647685328000	     -0.34488404350091539000	     45.97937654742737100000	     -4.01597929012564060000	      3.51216278130261510000	    -84.78890161329523800000	      6.81566276463621090000	     -0.00000000000011959739	     -0.00000000000010158573	     12.16161926402485200000	     10.29111889876525300000	     -0.53720808367404393000	    -26.14582987895349600000	     13.57923156004618900000	     -0.00000000000001805382	     -0.00000000000005209290	      1.99531441900698600000	     -3.96031362168922740000	     -7.19354822300854660000	    -34.99937777173570200000	    -21.65820475038492500000	     -6.78102842996840760000	     93.80181316382703500000	    107.71279431173193000000	     -0.00000000000000271687	     -0.00000000000003566941	    -24.50976569949723300000	    -10.41970793160004900000	    -12.36924924001478500000	    115.67955429272429000000	    100.35957371131425000000	      0.00000000000002260110	      0.00000000000005843332
